# xmcd
#
# Track frame offsets:
#	150
#	14361
#	28175
#	39060
#	50826
#	63605
#	76970
#	90010
#	101388
#	114871
#	127772
#	137691
#	148225
#	160185
#	171938
#	183465
#	194955
#	206277
#	216621
#	228852
#	239701
#
# Disc length: 3718 seconds
#
# Revision: 0
# Processed by: cddbd v1.5.2PL0 Copyright (c) Steve Scherf et al.
# Submitted via: EasyCDDAExtractor 10.0.2.1
#
DISCID=260e8415
DTITLE=Ike Turner - 1951-1954
DYEAR=2006
DGENRE=Blues
TTITLE0=Heartbroken And Worried
TTITLE1=I'm Lonesome Baby
TTITLE2=You're Driving Me Insane
TTITLE3=Troubles And Heartaches
TTITLE4=Everybody's Talking
TTITLE5=Love Is A Gamble
TTITLE6=My Heart Belongs To You
TTITLE7=Looking For My Baby
TTITLE8=Way Down In The Congo
TTITLE9=Old Brother Jack
TTITLE10=Love Is A Gamble - 2
TTITLE11=Love Is Scarce
TTITLE12=The Way You Used To Treat Me
TTITLE13=Nobody Wants Me
TTITLE14=Nobody Seems To Want Me
TTITLE15=Why Did You Leave Me
TTITLE16=Cubano Jump (Hey Miss Tina)
TTITLE17=Loosely (The Wild One)
TTITLE18=Cuban Get Away (Bayou Rock)
TTITLE19=Go To It (Stringin' Along)
TTITLE20=All The Blues, All The Time
EXTD=
EXTT0=
EXTT1=
EXTT2=
EXTT3=
EXTT4=
EXTT5=
EXTT6=
EXTT7=
EXTT8=
EXTT9=
EXTT10=
EXTT11=
EXTT12=
EXTT13=
EXTT14=
EXTT15=
EXTT16=
EXTT17=
EXTT18=
EXTT19=
EXTT20=
PLAYORDER=
